<svg xmlns="http://www.w3.org/2000/svg" viewBox="0 0 400 300" width="400" height="300"><rect width="400" height="300" fill="#141415"/><circle cx="200" cy="136" r="110" fill="#1C1C1E"/><rect x="40" y="250" width="320" height="2" fill="#1C1C1E"/><g fill="none" stroke="#D4A853" stroke-width="7" stroke-linecap="round" stroke-linejoin="round"><path d="M138 82L262 82" stroke-width="5"/><path d="M138 96L262 96" stroke-width="5"/><path d="M138 110L262 110" stroke-width="5"/><path d="M138 124L262 124" stroke-width="5"/><path d="M138 138L262 138" stroke-width="5"/><path d="M138 152L262 152" stroke-width="5"/><path d="M138 166L262 166" stroke-width="5"/><path d="M138 180L262 180" stroke-width="5"/><path d="M138 194L262 194" stroke-width="5"/><rect x="120" y="60" width="18" height="150" rx="6" fill="#D4A853" fill-opacity=".15"/><rect x="262" y="60" width="18" height="150" rx="6" fill="#D4A853" fill-opacity=".15"/><path d="M200 76C200 44 250 40 292 38"/><path d="M292 38L304 37" stroke="#F3D58A" stroke-width="4"/></g><text x="200" y="278" fill="#9CA3AF" font-family="Inter, Arial, sans-serif" font-size="15" text-anchor="middle">Fils H07V-U / H07V-R</text></svg>