<svg xmlns="http://www.w3.org/2000/svg" viewBox="0 0 400 300" width="400" height="300"><rect width="400" height="300" fill="#141415"/><circle cx="200" cy="136" r="110" fill="#1C1C1E"/><rect x="40" y="250" width="320" height="2" fill="#1C1C1E"/><g fill="none" stroke="#D4A853" stroke-width="7" stroke-linecap="round" stroke-linejoin="round"><rect x="122" y="44" width="106" height="176" rx="18" fill="#D4A853" fill-opacity=".15"/><rect x="142" y="60" width="66" height="30" rx="5" fill="#0A0A0B"/><circle cx="160" cy="75" r="4" fill="#D4A853" stroke="none"/><circle cx="148" cy="116" r="8" fill="#0A0A0B" stroke-width="5"/><circle cx="148" cy="144" r="8" fill="#0A0A0B" stroke-width="5"/><circle cx="148" cy="172" r="8" fill="#0A0A0B" stroke-width="5"/><circle cx="175" cy="116" r="8" fill="#0A0A0B" stroke-width="5"/><circle cx="175" cy="144" r="8" fill="#0A0A0B" stroke-width="5"/><circle cx="175" cy="172" r="8" fill="#0A0A0B" stroke-width="5"/><circle cx="202" cy="116" r="8" fill="#0A0A0B" stroke-width="5"/><circle cx="202" cy="144" r="8" fill="#0A0A0B" stroke-width="5"/><circle cx="202" cy="172" r="8" fill="#0A0A0B" stroke-width="5"/><g transform="rotate(-15 256 146)"><rect x="218" y="120" width="78" height="52" rx="8" fill="#0A0A0B"/><rect x="230" y="132" width="18" height="14" rx="2" fill="#D4A853" stroke="none"/></g><path d="M248 94A14 14 0 0 1 268 94M238 84A28 28 0 0 1 278 84" stroke-width="5"/></g><text x="200" y="278" fill="#9CA3AF" font-family="Inter, Arial, sans-serif" font-size="15" text-anchor="middle">Contrôle d’accès</text></svg>